<?xml version="1.0" encoding="UTF-8"?><svg id="Layer_2" xmlns="http://www.w3.org/2000/svg" viewBox="0 0 196.54 226.95"><defs><style>.cls-1{fill:#00b5ef;}</style></defs><g id="Layer_1-2"><path class="cls-1" d="m76.57,66.51l2.36,4.07c3.27,0,5.38-1.39,6.77-2.54,1.94-1.61,5.36-5.68,5.03-13.5-1.78.24-3.53.57-5.25.97.1,1.93-.08,3.72-.59,5.09-1.46,3.9-3.36,5.07-8.32,5.92Z"/><path class="cls-1" d="m75.31,42.7c5.82-.03,7.83,3.87,9.53,8.45,1.77-.4,3.56-.73,5.38-.97-2.88-9.29-4.93-14.23-7.83-17.95-3.37-4.32-7.13-6.49-12.61-6.49s-9.66,3.56-11.35,9.6l8.17,14.06s1.63-6.67,8.71-6.7Z"/><path class="cls-1" d="m91.13,41.92c.21.5.62,1.55.63,1.58.87,2.25,1.45,4.35,1.83,6.33,1.54-.12,3.1-.2,4.68-.2s3.13.08,4.68.2c.38-1.97.96-4.08,1.83-6.33,0-.03.42-1.08.63-1.58,2.43-5.9,6.74-15.28,7.01-23.55.29-9.03-14.15-18.37-14.15-18.37,0,0-14.44,9.34-14.15,18.37.27,8.26,4.58,17.64,7.01,23.55Z"/><path class="cls-1" d="m105.81,54.52c-.33,7.83,3.09,11.89,5.03,13.5,1.39,1.16,3.5,2.54,6.77,2.54l2.36-4.07c-4.96-.85-6.86-2.02-8.32-5.92-.51-1.37-.69-3.17-.59-5.09-1.72-.4-3.47-.73-5.25-.97Z"/><path class="cls-1" d="m111.71,51.15c1.69-4.59,3.7-8.48,9.53-8.45,7.08.03,8.71,6.7,8.71,6.7l8.17-14.06c-1.69-6.04-6.06-9.6-11.35-9.6s-9.24,2.17-12.61,6.49c-2.9,3.71-4.95,8.65-7.83,17.95,1.82.24,3.61.57,5.38.97Z"/><path class="cls-1" d="m51.45,108.77c1.64-2.83,1.49-5.35,1.18-7.14-.43-2.48-2.24-7.48-9.18-11.11-.68,1.66-1.28,3.34-1.79,5.04,1.72.88,3.18,1.93,4.12,3.06,2.64,3.21,2.71,5.45.96,10.16h4.7Z"/><path class="cls-1" d="m19.97,86.61c-5.43.76-9.19,2.93-11.93,7.67-2.64,4.58-1.75,10.14,2.64,14.62l16.27-.05s-4.96-4.74-1.45-10.89c2.89-5.06,7.27-4.85,12.09-4.02.53-1.73,1.15-3.45,1.85-5.14-9.49-2.15-14.79-2.85-19.46-2.19Z"/><path class="cls-1" d="m8.84,78.18c7.29,3.9,17.57,4.85,23.9,5.7.54.06,1.66.24,1.68.24,2.38.37,4.49.92,6.39,1.58.67-1.4,1.38-2.78,2.17-4.15.79-1.36,1.63-2.67,2.51-3.95-1.52-1.31-3.05-2.87-4.56-4.75-.02-.02-.72-.9-1.05-1.34-3.9-5.05-9.86-13.48-16.89-17.84-7.67-4.77-22.98,3.07-22.98,3.07,0,0,.87,17.18,8.84,21.44Z"/><path class="cls-1" d="m65.2,79.87c1.7-.62,3.95-1.76,5.59-4.59l-2.34-4.08c-3.21,3.87-5.18,4.93-9.28,4.25-1.44-.24-3.09-.99-4.71-2.03-1.21,1.29-2.37,2.64-3.47,4.06,6.61,4.2,11.85,3.27,14.21,2.4Z"/><path class="cls-1" d="m47.49,74.85c1.12-1.45,2.3-2.84,3.53-4.17-3.13-3.76-5.5-7.45-2.56-12.48,3.57-6.12,10.16-4.19,10.16-4.19l-8.09-14.11c-6.07-1.56-11.34.45-13.98,5.03-2.74,4.74-2.74,9.09-.68,14.17,1.77,4.37,5.02,8.61,11.63,15.75Z"/><path class="cls-1" d="m50.99,149.47c1.1,1.42,2.26,2.78,3.47,4.06,1.62-1.05,3.26-1.79,4.71-2.03,4.1-.69,6.07.38,9.28,4.25l2.34-4.08c-1.64-2.83-3.89-3.97-5.59-4.59-2.36-.87-7.6-1.8-14.21,2.4Z"/><path class="cls-1" d="m48.46,168.75c-2.94-5.03-.57-8.72,2.56-12.48-1.23-1.33-2.41-2.72-3.53-4.17-6.61,7.14-9.86,11.39-11.63,15.75-2.06,5.08-2.06,9.42.68,14.17,2.64,4.58,7.91,6.58,13.98,5.03l8.09-14.11s-6.59,1.93-10.16-4.19Z"/><path class="cls-1" d="m40.92,154.1c1.51-1.88,3.04-3.43,4.56-4.75-.88-1.28-1.72-2.59-2.51-3.95s-1.5-2.75-2.17-4.15c-1.9.66-4.01,1.21-6.39,1.58-.03,0-1.14.18-1.68.24-6.33.85-16.61,1.8-23.9,5.7-7.97,4.26-8.84,21.44-8.84,21.44,0,0,15.31,7.84,22.98,3.07,7.02-4.36,12.99-12.79,16.89-17.84.33-.44,1.03-1.32,1.05-1.34Z"/><path class="cls-1" d="m43.45,136.43c6.94-3.63,8.75-8.63,9.18-11.11.31-1.78.45-4.3-1.18-7.14h-4.7c1.74,4.7,1.68,6.94-.96,10.15-.93,1.13-2.4,2.18-4.12,3.06.51,1.69,1.1,3.37,1.79,5.04Z"/><path class="cls-1" d="m26.94,118.08l-16.27-.05c-4.39,4.48-5.28,10.05-2.64,14.62,2.74,4.74,6.5,6.91,11.93,7.67,4.66.65,9.97-.04,19.46-2.19-.7-1.7-1.31-3.41-1.85-5.14-4.82.83-9.2,1.03-12.09-4.02-3.51-6.15,1.45-10.89,1.45-10.89Z"/><path class="cls-1" d="m119.97,160.44l-2.36-4.07c-3.27,0-5.38,1.39-6.77,2.54-1.94,1.61-5.36,5.68-5.03,13.5,1.78-.24,3.53-.57,5.25-.97-.1-1.93.08-3.72.59-5.09,1.46-3.9,3.36-5.07,8.32-5.92Z"/><path class="cls-1" d="m121.24,184.25c-5.82.03-7.83-3.87-9.53-8.45-1.77.4-3.56.73-5.38.97,2.88,9.29,4.93,14.23,7.83,17.95,3.37,4.32,7.13,6.49,12.61,6.49s9.66-3.56,11.35-9.6l-8.17-14.06s-1.63,6.67-8.71,6.7Z"/><path class="cls-1" d="m105.41,185.03c-.21-.5-.62-1.55-.63-1.58-.87-2.25-1.45-4.35-1.83-6.33-1.54.12-3.1.2-4.68.2s-3.13-.08-4.68-.2c-.38,1.97-.96,4.08-1.83,6.33,0,.03-.42,1.08-.63,1.58-2.43,5.9-6.74,15.28-7.01,23.55-.29,9.03,14.15,18.37,14.15,18.37,0,0,14.44-9.34,14.15-18.37-.27-8.26-4.58-17.64-7.01-23.55Z"/><path class="cls-1" d="m90.74,172.43c.33-7.83-3.09-11.89-5.03-13.5-1.39-1.16-3.5-2.54-6.77-2.54l-2.36,4.07c4.96.85,6.86,2.02,8.32,5.92.51,1.37.69,3.17.59,5.09,1.72.4,3.47.73,5.25.97Z"/><path class="cls-1" d="m84.83,175.8c-1.69,4.59-3.7,8.48-9.53,8.45-7.08-.03-8.71-6.7-8.71-6.7l-8.17,14.06c1.69,6.04,6.06,9.6,11.35,9.6s9.24-2.17,12.61-6.49c2.9-3.71,4.95-8.65,7.83-17.95-1.82-.24-3.61-.57-5.38-.97Z"/><path class="cls-1" d="m154.88,131.39c-1.72-.88-3.18-1.93-4.12-3.06-2.64-3.21-2.71-5.45-.96-10.16h-4.7c-1.64,2.85-1.49,5.37-1.18,7.15.43,2.48,2.24,7.48,9.18,11.11.68-1.66,1.28-3.34,1.79-5.04Z"/><path class="cls-1" d="m158.96,133c-.53,1.73-1.15,3.45-1.85,5.14,9.49,2.15,14.79,2.85,19.46,2.19,5.43-.76,9.19-2.93,11.93-7.67,2.64-4.58,1.75-10.14-2.64-14.62l-16.27.05s4.96,4.74,1.45,10.89c-2.89,5.06-7.27,4.85-12.09,4.02Z"/><path class="cls-1" d="m187.71,148.77c-7.29-3.9-17.57-4.85-23.9-5.7-.54-.06-1.66-.24-1.68-.24-2.38-.37-4.49-.92-6.39-1.58-.67,1.4-1.38,2.78-2.17,4.15-.79,1.36-1.63,2.67-2.51,3.95,1.52,1.31,3.05,2.87,4.56,4.75.02.02.72.9,1.05,1.34,3.9,5.05,9.86,13.48,16.89,17.84,7.67,4.77,22.98-3.07,22.98-3.07,0,0-.87-17.18-8.84-21.44Z"/><path class="cls-1" d="m131.35,147.08c-1.7.62-3.95,1.76-5.59,4.59l2.34,4.08c3.21-3.87,5.18-4.93,9.28-4.25,1.44.24,3.09.99,4.71,2.03,1.21-1.29,2.37-2.64,3.47-4.06-6.61-4.2-11.85-3.27-14.21-2.4Z"/><path class="cls-1" d="m149.78,143.21c.69-1.2,1.31-2.41,1.91-3.64-3.03-1.54-5.11-3.33-6.53-5.08-4.49-4.95-5.08-10.13-5.08-10.13-7.14-1.88-12.3-.06-15.09,1.49.09-1.3-.23-2.63-.9-3.76-.91-1.55-2.12-2.34-3.39-2.75h0s-16.62-5.21-16.62-5.21c-.64-.2-.64-1.11,0-1.31l16.62-5.21h0c1.27-.42,2.48-1.2,3.39-2.75.67-1.14.99-2.47.9-3.76,2.79,1.55,7.95,3.37,15.09,1.49,0,0,.6-5.18,5.08-10.13,1.42-1.75,3.5-3.55,6.53-5.08-.59-1.22-1.22-2.44-1.91-3.64-.69-1.2-1.43-2.34-2.2-3.47-2.84,1.86-5.44,2.76-7.67,3.12-6.53,1.41-11.32-.67-11.32-.67-5.19,5.24-6.2,10.61-6.25,13.8-1.93-1.35-4.54-1.54-6.71-.29-.4.23-.75.5-1.08.79h0s-12.81,11.77-12.81,11.77c-.5.46-1.28,0-1.13-.66l3.8-17h0c.3-1.39.19-2.93-.84-4.54-.66-1.04-1.61-1.89-2.7-2.43,2.74-1.63,6.93-5.18,8.88-12.34,0,0-4.19-3.11-6.23-9.47-.81-2.11-1.32-4.81-1.14-8.2-1.36-.1-2.72-.17-4.1-.17s-2.75.07-4.1.17c.18,3.39-.33,6.09-1.14,8.2-2.05,6.36-6.23,9.47-6.23,9.47,1.95,7.13,6.1,10.69,8.84,12.32-2.14,1-3.61,3.16-3.61,5.67,0,.46.06.9.15,1.33h0l3.8,16.98c.15.66-.64,1.11-1.13.66l-12.81-11.78h0c-.98-.89-2.25-1.54-4.04-1.56-1.35-.02-2.68.38-3.78,1.12-.04-3.19-1.03-8.59-6.25-13.86,0,0-4.78,2.07-11.32.67-2.23-.36-4.82-1.26-7.67-3.12-.76,1.13-1.51,2.27-2.2,3.47-.69,1.2-1.31,2.41-1.91,3.64,3.03,1.54,5.11,3.33,6.53,5.08,4.49,4.95,5.08,10.13,5.08,10.13,7.15,1.88,12.32.05,15.1-1.5-.21,2.35.92,4.72,3.1,5.98.39.23.8.4,1.21.53h0s16.62,5.21,16.62,5.21c.64.2.64,1.11,0,1.31l-16.62,5.21h0c-1.28.42-2.5,1.22-3.41,2.78-.66,1.14-.98,2.46-.88,3.75-2.78-1.56-7.95-3.4-15.12-1.51,0,0-.6,5.18-5.08,10.13-1.42,1.75-3.5,3.55-6.53,5.08.59,1.22,1.22,2.44,1.91,3.64.69,1.2,1.43,2.34,2.2,3.47,2.84-1.86,5.44-2.76,7.67-3.12,6.53-1.41,11.32.67,11.32.67,5.2-5.25,6.2-10.63,6.25-13.82,1.93,1.36,4.56,1.57,6.74.31.4-.23.75-.5,1.08-.8h0s12.81-11.77,12.81-11.77c.5-.46,1.28,0,1.13.66l-3.8,17h0c-.26,1.19-.21,2.49.46,3.89.64,1.34,1.72,2.45,3.03,3.09-2.74,1.63-6.91,5.19-8.86,12.33,0,0,4.19,3.11,6.23,9.47.81,2.11,1.32,4.81,1.14,8.2,1.36.1,2.72.17,4.1.17s2.75-.07,4.1-.17c-.18-3.39.33-6.09,1.14-8.2,2.05-6.36,6.23-9.47,6.23-9.47-1.94-7.12-6.09-10.68-8.83-12.32,2.14-.99,3.63-3.16,3.63-5.68,0-.46-.06-.9-.15-1.33h0l-3.8-16.98c-.15-.66.64-1.11,1.13-.66l12.81,11.78h0c.33.29.68.56,1.08.79,2.17,1.25,4.78,1.06,6.71-.29.05,3.19,1.06,8.56,6.25,13.8,0,0,4.78-2.07,11.32-.67,2.23.36,4.82,1.26,7.67,3.12.76-1.13,1.51-2.27,2.2-3.47Z"/><path class="cls-1" d="m149.06,152.1c-1.12,1.45-2.3,2.84-3.53,4.17,3.13,3.76,5.5,7.45,2.56,12.48-3.57,6.12-10.16,4.19-10.16,4.19l8.09,14.11c6.07,1.56,11.34-.45,13.98-5.03,2.74-4.74,2.74-9.09.68-14.17-1.77-4.37-5.02-8.61-11.63-15.75Z"/><path class="cls-1" d="m145.56,77.48c-1.1-1.42-2.26-2.78-3.47-4.06-1.62,1.05-3.26,1.79-4.71,2.03-4.1.69-6.07-.38-9.28-4.25l-2.34,4.08c1.64,2.83,3.89,3.97,5.59,4.59,2.36.87,7.6,1.8,14.21-2.4Z"/><path class="cls-1" d="m148.08,58.2c2.94,5.03.57,8.72-2.56,12.48,1.23,1.33,2.41,2.72,3.53,4.17,6.61-7.14,9.86-11.39,11.63-15.75,2.06-5.08,2.06-9.42-.68-14.17-2.64-4.58-7.91-6.58-13.98-5.03l-8.09,14.11s6.59-1.93,10.16,4.19Z"/><path class="cls-1" d="m155.62,72.85c-1.51,1.88-3.04,3.43-4.56,4.75.88,1.28,1.72,2.59,2.51,3.95.79,1.36,1.5,2.75,2.17,4.15,1.9-.66,4.01-1.21,6.39-1.58.03,0,1.14-.18,1.68-.24,6.33-.85,16.61-1.8,23.9-5.7,7.97-4.26,8.84-21.44,8.84-21.44,0,0-15.31-7.84-22.98-3.07-7.02,4.36-12.99,12.79-16.89,17.84-.33.44-1.03,1.32-1.05,1.34Z"/><path class="cls-1" d="m153.09,90.52c-6.94,3.63-8.75,8.63-9.18,11.11-.31,1.78-.45,4.3,1.18,7.14h4.7c-1.74-4.7-1.68-6.94.96-10.15.93-1.13,2.4-2.18,4.12-3.06-.51-1.69-1.1-3.37-1.79-5.04Z"/><path class="cls-1" d="m188.5,94.29c-2.74-4.74-6.5-6.91-11.93-7.67-4.66-.65-9.97.04-19.46,2.19.7,1.7,1.31,3.41,1.85,5.14,4.82-.83,9.2-1.03,12.09,4.02,3.51,6.15-1.45,10.89-1.45,10.89l16.27.05c4.39-4.48,5.28-10.05,2.64-14.62Z"/></g></svg>