<?xml version="1.0" encoding="UTF-8"?>
<svg id="Layer_2" xmlns="http://www.w3.org/2000/svg" version="1.1" viewBox="0 0 196.6 226.9">
  <!-- Generator: Adobe Illustrator 29.8.0, SVG Export Plug-In . SVG Version: 2.1.1 Build 86)  -->
  <defs>
    <style>
      .st0 {
        fill: #fff;
      }
    </style>
  </defs>
  <g id="Layer_1-2">
    <g>
      <path class="st0" d="M76.6,66.5l2.4,4.1c3.3,0,5.4-1.4,6.8-2.5,1.9-1.6,5.4-5.7,5-13.5-1.8.2-3.5.6-5.2,1,0,1.9,0,3.7-.6,5.1-1.5,3.9-3.4,5.1-8.3,5.9h0Z"/>
      <path class="st0" d="M75.3,42.7c5.8,0,7.8,3.9,9.5,8.5,1.8-.4,3.6-.7,5.4-1-2.9-9.3-4.9-14.2-7.8-18-3.4-4.3-7.1-6.5-12.6-6.5s-9.7,3.6-11.3,9.6l8.2,14.1s1.6-6.7,8.7-6.7Z"/>
      <path class="st0" d="M91.1,41.9c.2.5.6,1.5.6,1.6.9,2.2,1.4,4.3,1.8,6.3,1.5-.1,3.1-.2,4.7-.2s3.1,0,4.7.2c.4-2,1-4.1,1.8-6.3,0,0,.4-1.1.6-1.6,2.4-5.9,6.7-15.3,7-23.5.3-9-14.2-18.4-14.2-18.4,0,0-14.4,9.3-14.2,18.4.3,8.3,4.6,17.6,7,23.5Z"/>
      <path class="st0" d="M105.8,54.5c-.3,7.8,3.1,11.9,5,13.5,1.4,1.2,3.5,2.5,6.8,2.5l2.4-4.1c-5-.8-6.9-2-8.3-5.9-.5-1.4-.7-3.2-.6-5.1-1.7-.4-3.5-.7-5.2-1h0Z"/>
      <path class="st0" d="M111.7,51.2c1.7-4.6,3.7-8.5,9.5-8.5,7.1,0,8.7,6.7,8.7,6.7l8.2-14.1c-1.7-6-6.1-9.6-11.3-9.6s-9.2,2.2-12.6,6.5c-2.9,3.7-4.9,8.6-7.8,18,1.8.2,3.6.6,5.4,1Z"/>
      <path class="st0" d="M51.5,108.8c1.6-2.8,1.5-5.3,1.2-7.1-.4-2.5-2.2-7.5-9.2-11.1-.7,1.7-1.3,3.3-1.8,5,1.7.9,3.2,1.9,4.1,3.1,2.6,3.2,2.7,5.4,1,10.2h4.7Z"/>
      <path class="st0" d="M20,86.6c-5.4.8-9.2,2.9-11.9,7.7-2.6,4.6-1.8,10.1,2.6,14.6h16.3c0,0-5-4.8-1.5-10.9,2.9-5.1,7.3-4.8,12.1-4,.5-1.7,1.2-3.4,1.8-5.1-9.5-2.2-14.8-2.8-19.5-2.2h0Z"/>
      <path class="st0" d="M8.8,78.2c7.3,3.9,17.6,4.8,23.9,5.7.5,0,1.7.2,1.7.2,2.4.4,4.5.9,6.4,1.6.7-1.4,1.4-2.8,2.2-4.2.8-1.4,1.6-2.7,2.5-3.9-1.5-1.3-3-2.9-4.6-4.8,0,0-.7-.9-1-1.3-3.9-5.1-9.9-13.5-16.9-17.8C15.3,48.9,0,56.7,0,56.7c0,0,.9,17.2,8.8,21.4h0Z"/>
      <path class="st0" d="M65.2,79.9c1.7-.6,3.9-1.8,5.6-4.6l-2.3-4.1c-3.2,3.9-5.2,4.9-9.3,4.2-1.4-.2-3.1-1-4.7-2-1.2,1.3-2.4,2.6-3.5,4.1,6.6,4.2,11.8,3.3,14.2,2.4h0Z"/>
      <path class="st0" d="M47.5,74.9c1.1-1.4,2.3-2.8,3.5-4.2-3.1-3.8-5.5-7.5-2.6-12.5,3.6-6.1,10.2-4.2,10.2-4.2l-8.1-14.1c-6.1-1.6-11.3.5-14,5-2.7,4.7-2.7,9.1-.7,14.2,1.8,4.4,5,8.6,11.6,15.8h0Z"/>
      <path class="st0" d="M51,149.5c1.1,1.4,2.3,2.8,3.5,4.1,1.6-1.1,3.3-1.8,4.7-2,4.1-.7,6.1.4,9.3,4.2l2.3-4.1c-1.6-2.8-3.9-4-5.6-4.6-2.4-.9-7.6-1.8-14.2,2.4h0Z"/>
      <path class="st0" d="M48.5,168.8c-2.9-5-.6-8.7,2.6-12.5-1.2-1.3-2.4-2.7-3.5-4.2-6.6,7.1-9.9,11.4-11.6,15.8-2.1,5.1-2.1,9.4.7,14.2,2.6,4.6,7.9,6.6,14,5l8.1-14.1s-6.6,1.9-10.2-4.2h0Z"/>
      <path class="st0" d="M40.9,154.1c1.5-1.9,3-3.4,4.6-4.8-.9-1.3-1.7-2.6-2.5-3.9s-1.5-2.8-2.2-4.1c-1.9.7-4,1.2-6.4,1.6,0,0-1.1.2-1.7.2-6.3.9-16.6,1.8-23.9,5.7-8,4.3-8.8,21.4-8.8,21.4,0,0,15.3,7.8,23,3.1,7-4.4,13-12.8,16.9-17.8.3-.4,1-1.3,1-1.3h0Z"/>
      <path class="st0" d="M43.5,136.4c6.9-3.6,8.8-8.6,9.2-11.1.3-1.8.5-4.3-1.2-7.1h-4.7c1.7,4.7,1.7,6.9-1,10.1-.9,1.1-2.4,2.2-4.1,3.1.5,1.7,1.1,3.4,1.8,5h0Z"/>
      <path class="st0" d="M26.9,118.1H10.7c-4.4,4.4-5.3,10-2.6,14.6,2.7,4.7,6.5,6.9,11.9,7.7,4.7.6,10,0,19.5-2.2-.7-1.7-1.3-3.4-1.8-5.1-4.8.8-9.2,1-12.1-4-3.5-6.2,1.5-10.9,1.5-10.9h0Z"/>
      <path class="st0" d="M120,160.4l-2.4-4.1c-3.3,0-5.4,1.4-6.8,2.5-1.9,1.6-5.4,5.7-5,13.5,1.8-.2,3.5-.6,5.2-1,0-1.9,0-3.7.6-5.1,1.5-3.9,3.4-5.1,8.3-5.9h0Z"/>
      <path class="st0" d="M121.2,184.3c-5.8,0-7.8-3.9-9.5-8.4-1.8.4-3.6.7-5.4,1,2.9,9.3,4.9,14.2,7.8,17.9,3.4,4.3,7.1,6.5,12.6,6.5s9.7-3.6,11.4-9.6l-8.2-14.1s-1.6,6.7-8.7,6.7h0Z"/>
      <path class="st0" d="M105.4,185c-.2-.5-.6-1.6-.6-1.6-.9-2.2-1.4-4.4-1.8-6.3-1.5.1-3.1.2-4.7.2s-3.1,0-4.7-.2c-.4,2-1,4.1-1.8,6.3,0,0-.4,1.1-.6,1.6-2.4,5.9-6.7,15.3-7,23.6-.3,9,14.2,18.4,14.2,18.4,0,0,14.4-9.3,14.2-18.4-.3-8.3-4.6-17.6-7-23.6Z"/>
      <path class="st0" d="M90.7,172.4c.3-7.8-3.1-11.9-5-13.5-1.4-1.2-3.5-2.5-6.8-2.5l-2.4,4.1c5,.9,6.9,2,8.3,5.9.5,1.4.7,3.2.6,5.1,1.7.4,3.5.7,5.2,1h0Z"/>
      <path class="st0" d="M84.8,175.8c-1.7,4.6-3.7,8.5-9.5,8.4-7.1,0-8.7-6.7-8.7-6.7l-8.2,14.1c1.7,6,6.1,9.6,11.3,9.6s9.2-2.2,12.6-6.5c2.9-3.7,4.9-8.6,7.8-17.9-1.8-.2-3.6-.6-5.4-1Z"/>
      <path class="st0" d="M154.9,131.4c-1.7-.9-3.2-1.9-4.1-3.1-2.6-3.2-2.7-5.4-1-10.2h-4.7c-1.6,2.8-1.5,5.4-1.2,7.2.4,2.5,2.2,7.5,9.2,11.1.7-1.7,1.3-3.3,1.8-5h0Z"/>
      <path class="st0" d="M159,133c-.5,1.7-1.1,3.4-1.9,5.1,9.5,2.1,14.8,2.9,19.5,2.2,5.4-.8,9.2-2.9,11.9-7.7,2.6-4.6,1.8-10.1-2.6-14.6h-16.3c0,0,5,4.8,1.4,10.9-2.9,5.1-7.3,4.9-12.1,4h0Z"/>
      <path class="st0" d="M187.7,148.8c-7.3-3.9-17.6-4.9-23.9-5.7-.5,0-1.7-.2-1.7-.2-2.4-.4-4.5-.9-6.4-1.6-.7,1.4-1.4,2.8-2.2,4.1-.8,1.4-1.6,2.7-2.5,3.9,1.5,1.3,3.1,2.9,4.6,4.8,0,0,.7.9,1.1,1.3,3.9,5.1,9.9,13.5,16.9,17.8,7.7,4.8,23-3.1,23-3.1,0,0-.9-17.2-8.8-21.4h0Z"/>
      <path class="st0" d="M131.4,147.1c-1.7.6-3.9,1.8-5.6,4.6l2.3,4.1c3.2-3.9,5.2-4.9,9.3-4.2,1.4.2,3.1,1,4.7,2,1.2-1.3,2.4-2.6,3.5-4.1-6.6-4.2-11.9-3.3-14.2-2.4h0Z"/>
      <path class="st0" d="M149.8,143.2c.7-1.2,1.3-2.4,1.9-3.6-3-1.5-5.1-3.3-6.5-5.1-4.5-4.9-5.1-10.1-5.1-10.1-7.1-1.9-12.3,0-15.1,1.5,0-1.3-.2-2.6-.9-3.8-.9-1.6-2.1-2.3-3.4-2.8h0l-16.6-5.2c-.6-.2-.6-1.1,0-1.3l16.6-5.2h0c1.3-.4,2.5-1.2,3.4-2.8.7-1.1,1-2.5.9-3.8,2.8,1.6,7.9,3.4,15.1,1.5,0,0,.6-5.2,5.1-10.1,1.4-1.8,3.5-3.6,6.5-5.1-.6-1.2-1.2-2.4-1.9-3.6s-1.4-2.3-2.2-3.5c-2.8,1.9-5.4,2.8-7.7,3.1-6.5,1.4-11.3-.7-11.3-.7-5.2,5.2-6.2,10.6-6.2,13.8-1.9-1.3-4.5-1.5-6.7-.3-.4.2-.8.5-1.1.8h0l-12.8,11.8c-.5.5-1.3,0-1.1-.7l3.8-17h0c.3-1.4.2-2.9-.8-4.5-.7-1-1.6-1.9-2.7-2.4,2.7-1.6,6.9-5.2,8.9-12.3,0,0-4.2-3.1-6.2-9.5-.8-2.1-1.3-4.8-1.1-8.2-1.4,0-2.7-.2-4.1-.2s-2.8,0-4.1.2c.2,3.4-.3,6.1-1.1,8.2-2.1,6.4-6.2,9.5-6.2,9.5,1.9,7.1,6.1,10.7,8.8,12.3-2.1,1-3.6,3.2-3.6,5.7s0,.9.2,1.3h0l3.8,17c.2.7-.6,1.1-1.1.7l-12.8-11.8h0c-1-.9-2.2-1.5-4-1.6-1.3,0-2.7.4-3.8,1.1,0-3.2-1-8.6-6.2-13.9,0,0-4.8,2.1-11.3.7-2.2-.4-4.8-1.3-7.7-3.1-.8,1.1-1.5,2.3-2.2,3.5-.7,1.2-1.3,2.4-1.9,3.6,3,1.5,5.1,3.3,6.5,5.1,4.5,4.9,5.1,10.1,5.1,10.1,7.2,1.9,12.3,0,15.1-1.5-.2,2.3.9,4.7,3.1,6,.4.2.8.4,1.2.5h0l16.6,5.2c.6.2.6,1.1,0,1.3l-16.6,5.2h0c-1.3.4-2.5,1.2-3.4,2.8-.7,1.1-1,2.5-.9,3.8-2.8-1.6-8-3.4-15.1-1.5,0,0-.6,5.2-5.1,10.1-1.4,1.8-3.5,3.6-6.5,5.1.6,1.2,1.2,2.4,1.9,3.6s1.4,2.3,2.2,3.5c2.8-1.9,5.4-2.8,7.7-3.1,6.5-1.4,11.3.7,11.3.7,5.2-5.2,6.2-10.6,6.2-13.8,1.9,1.4,4.6,1.6,6.7.3.4-.2.8-.5,1.1-.8h0l12.8-11.8c.5-.5,1.3,0,1.1.7l-3.8,17h0c-.3,1.2-.2,2.5.5,3.9.6,1.3,1.7,2.4,3,3.1-2.7,1.6-6.9,5.2-8.9,12.3,0,0,4.2,3.1,6.2,9.5.8,2.1,1.3,4.8,1.1,8.2,1.4.1,2.7.2,4.1.2s2.8,0,4.1-.2c-.2-3.4.3-6.1,1.1-8.2,2.1-6.4,6.2-9.5,6.2-9.5-1.9-7.1-6.1-10.7-8.8-12.3,2.1-1,3.6-3.2,3.6-5.7s0-.9-.2-1.3h0l-3.8-17c-.2-.7.6-1.1,1.1-.7l12.8,11.8h0c.3.3.7.6,1.1.8,2.2,1.2,4.8,1.1,6.7-.3,0,3.2,1.1,8.6,6.2,13.8,0,0,4.8-2.1,11.3-.7,2.2.4,4.8,1.3,7.7,3.1.8-1.1,1.5-2.3,2.2-3.5h0Z"/>
      <path class="st0" d="M149.1,152.1c-1.1,1.4-2.3,2.8-3.5,4.2,3.1,3.8,5.5,7.4,2.6,12.5-3.6,6.1-10.2,4.2-10.2,4.2l8.1,14.1c6.1,1.6,11.3-.4,14-5,2.7-4.7,2.7-9.1.7-14.2-1.8-4.4-5-8.6-11.6-15.8h0Z"/>
      <path class="st0" d="M145.6,77.5c-1.1-1.4-2.3-2.8-3.5-4.1-1.6,1.1-3.3,1.8-4.7,2-4.1.7-6.1-.4-9.3-4.2l-2.3,4.1c1.6,2.8,3.9,4,5.6,4.6,2.4.9,7.6,1.8,14.2-2.4h0Z"/>
      <path class="st0" d="M148.1,58.2c2.9,5,.6,8.7-2.6,12.5,1.2,1.3,2.4,2.7,3.5,4.2,6.6-7.1,9.9-11.4,11.6-15.8,2.1-5.1,2.1-9.4-.7-14.2-2.6-4.6-7.9-6.6-14-5l-8.1,14.1s6.6-1.9,10.2,4.2h0Z"/>
      <path class="st0" d="M155.6,72.9c-1.5,1.9-3,3.4-4.6,4.8.9,1.3,1.7,2.6,2.5,3.9s1.5,2.8,2.2,4.2c1.9-.7,4-1.2,6.4-1.6,0,0,1.1-.2,1.7-.2,6.3-.8,16.6-1.8,23.9-5.7,8-4.3,8.8-21.4,8.8-21.4,0,0-15.3-7.8-23-3.1-7,4.4-13,12.8-16.9,17.8-.3.4-1,1.3-1.1,1.3h0Z"/>
      <path class="st0" d="M153.1,90.5c-6.9,3.6-8.8,8.6-9.2,11.1-.3,1.8-.4,4.3,1.2,7.1h4.7c-1.7-4.7-1.7-6.9,1-10.2.9-1.1,2.4-2.2,4.1-3.1-.5-1.7-1.1-3.4-1.8-5h0Z"/>
      <path class="st0" d="M188.5,94.3c-2.7-4.7-6.5-6.9-11.9-7.7-4.7-.7-10,0-19.5,2.2.7,1.7,1.3,3.4,1.9,5.1,4.8-.8,9.2-1,12.1,4,3.5,6.2-1.4,10.9-1.4,10.9h16.3c4.4-4.4,5.3-10,2.6-14.6h0Z"/>
    </g>
  </g>
</svg>